# xmcd CD database file
#
# Track frame offsets:
#	150
#	16577
#	36705
#	53877
#	75347
#	101172
#	122447
#	143790
#	152445
#	168122
#	190507
#
# Disc length: 2776 seconds
#
# Revision: 0
# Processed by: cddbd v1.4PL0 Copyright (c) Steve Scherf et al.
# Submitted via: CDex 1.40Beta5
#
DISCID=7a0ad60b
DTITLE=Scott Holt - Messing With the Kid
DYEAR=1900
DGENRE=Blues
TTITLE0=Messing With the Kid
TTITLE1=How Do We Sleep
TTITLE2=I Still Love You
TTITLE3=Ain't Gonna Be Your Fool
TTITLE4=Let's Straighten It Out
TTITLE5=Black Cat Bone
TTITLE6=I Fell In Love
TTITLE7=Not Fade Away
TTITLE8=He Stopped Loving Her Today
TTITLE9=Your Memory Won't let Me Be
TTITLE10=Who Knows
EXTD=ID3G:   0
EXTT0=
EXTT1=
EXTT2=
EXTT3=
EXTT4=
EXTT5=
EXTT6=
EXTT7=
EXTT8=
EXTT9=
EXTT10=
PLAYORDER=
